<svg width="15" height="10" viewBox="0 0 15 10" fill="none" xmlns="http://www.w3.org/2000/svg">
<path d="M5.89062 4.66797C6.67773 4.26172 7.10938 3.67773 7.10938 2.78906C7.10938 0.986328 5.76367 0.554688 4.24023 0.554688H0V9.54297H4.3418C5.99219 9.54297 7.51562 8.75586 7.51562 6.92773C7.51562 5.81055 6.98242 4.97266 5.89062 4.66797ZM1.95508 2.07812H3.83398C4.54492 2.07812 5.17969 2.28125 5.17969 3.11914C5.17969 3.88086 4.67188 4.18555 3.96094 4.18555H1.95508V2.07812ZM4.08789 8.01953H1.95508V5.53125H4.11328C5.00195 5.53125 5.53516 5.91211 5.53516 6.82617C5.53516 7.74023 4.875 8.01953 4.08789 8.01953ZM13.1777 1.90039V1.01172H9.54688V1.90039H13.1777ZM14.625 6.39453C14.625 4.46484 13.4824 2.83984 11.4512 2.83984C9.44531 2.83984 8.09961 4.33789 8.09961 6.29297C8.09961 8.32422 9.39453 9.7207 11.4512 9.7207C13 9.7207 14.0156 9.00977 14.498 7.53711H12.9238C12.7461 8.0957 12.0352 8.375 11.502 8.375C10.4609 8.375 9.90234 7.76562 9.90234 6.72461H14.5996C14.5996 6.62305 14.625 6.49609 14.625 6.39453ZM9.90234 5.58203C9.95312 4.74414 10.5371 4.21094 11.375 4.21094C12.2891 4.21094 12.7461 4.71875 12.8223 5.58203H9.90234Z" fill="white"/>
</svg>
