<svg width="162" height="162" viewBox="0 0 162 162" fill="none" xmlns="http://www.w3.org/2000/svg">
<path d="M64.0317 80.7437V84H62.1274V74.7578H65.7329C66.4269 74.7578 67.0363 74.8848 67.561 75.1387C68.09 75.3926 68.4963 75.7544 68.7798 76.2241C69.0633 76.6896 69.2051 77.2207 69.2051 77.8174C69.2051 78.723 68.894 79.4382 68.272 79.9629C67.6541 80.4834 66.7972 80.7437 65.7012 80.7437H64.0317ZM64.0317 79.2012H65.7329C66.2365 79.2012 66.6195 79.0827 66.8818 78.8457C67.1484 78.6087 67.2817 78.2702 67.2817 77.8301C67.2817 77.3773 67.1484 77.0112 66.8818 76.7319C66.6152 76.4526 66.2471 76.3088 65.7773 76.3003H64.0317V79.2012ZM74.4233 82.4702H78.4668V84H72.519V74.7578H74.4233V82.4702ZM86.9097 82.0957H83.5708L82.936 84H80.9111L84.3516 74.7578H86.1162L89.5757 84H87.5508L86.9097 82.0957ZM84.085 80.5532H86.3955L85.2339 77.0938L84.085 80.5532ZM94.6733 78.9219L96.5967 74.7578H98.6787L95.6445 80.6484V84H93.7085V80.6484L90.6743 74.7578H92.7627L94.6733 78.9219Z" fill="#c69f73"></path>
<path fill-rule="evenodd" clip-rule="evenodd" d="M81 161C125.183 161 161 125.183 161 81C161 36.8172 125.183 1 81 1C36.8172 1 1 36.8172 1 81C1 125.183 36.8172 161 81 161Z" stroke="#888888" stroke-width="2"/>
<path d="M81 161C125.183 161 161 125.183 161 81C161 36.8172 125.183 1 81 1C36.8172 1 1 36.8172 1 81C1 125.183 36.8172 161 81 161Z" stroke-width="2"/>
</svg>
