<svg width="34" height="34" viewBox="0 0 34 34" fill="none" xmlns="http://www.w3.org/2000/svg">
<path fill-rule="evenodd" clip-rule="evenodd" d="M27 33C30.3137 33 33 30.3137 33 27C33 23.6863 30.3137 21 27 21C23.6863 21 21 23.6863 21 27C21 30.3137 23.6863 33 27 33Z" stroke="#888888"/>
<path fill-rule="evenodd" clip-rule="evenodd" d="M7 13C10.3137 13 13 10.3137 13 7C13 3.68629 10.3137 1 7 1C3.68629 1 1 3.68629 1 7C1 10.3137 3.68629 13 7 13Z" stroke="#888888"/>
<path fill-rule="evenodd" clip-rule="evenodd" d="M27 13C30.3137 13 33 10.3137 33 7C33 3.68629 30.3137 1 27 1C23.6863 1 21 3.68629 21 7C21 10.3137 23.6863 13 27 13Z" stroke="#888888"/>
<path fill-rule="evenodd" clip-rule="evenodd" d="M7 33C10.3137 33 13 30.3137 13 27C13 23.6863 10.3137 21 7 21C3.68629 21 1 23.6863 1 27C1 30.3137 3.68629 33 7 33Z" stroke="#888888"/>
</svg>
