<svg width="72" height="71" viewBox="0 0 72 71" fill="none" xmlns="http://www.w3.org/2000/svg">
<path fill-rule="evenodd" clip-rule="evenodd" d="M10.8208 48.1393L10.9472 48.0141L58.9612 0L71.5 12.5388L23.3607 60.6792L2.71906 71L0.5 68.7809L10.8208 48.1393ZM49.0743 12.9936L13.2772 48.7907L22.7093 58.2228L58.5064 22.4257L49.0743 12.9936ZM50.6277 11.4402L53.4685 8.5994L62.9006 18.0315L60.0598 20.8723L50.6277 11.4402ZM20.8549 59.4741L12.0248 50.6451L7.82619 59.0412L11.5316 59.9684L12.4577 63.6727L20.8549 59.4741ZM6.81992 61.0549L9.72008 61.7799L10.4451 64.6801L3.19583 68.3053L6.81992 61.0549ZM55.0218 7.04606L64.4539 16.4782L68.3933 12.5388L58.9612 3.10668L55.0218 7.04606Z" fill="#B68C70"/>
</svg>
