<svg width="37" height="70" viewBox="0 0 37 70" fill="none" xmlns="http://www.w3.org/2000/svg">
<path fill-rule="evenodd" clip-rule="evenodd" d="M37 70H0V0H37V70ZM2.17647 56.875V67.8125H34.8235V56.875H2.17647ZM2.17647 54.6875V10.9375H34.8235V54.6875H2.17647ZM34.8235 8.75V2.1875H2.17647V8.75H34.8235Z" fill="#C69F73"/>
<rect x="14.1465" y="4.375" width="8.70588" height="2.1875" fill="#C69F73"/>
<path fill-rule="evenodd" clip-rule="evenodd" d="M15.2344 62.3438C15.2344 60.5347 16.6991 59.0625 18.4991 59.0625C20.299 59.0625 21.7638 60.5347 21.7638 62.3438C21.7638 64.1528 20.299 65.625 18.4991 65.625C16.6991 65.625 15.2344 64.1528 15.2344 62.3438ZM17.4108 62.3438C17.4108 62.9464 17.8995 63.4375 18.4991 63.4375C19.0987 63.4375 19.5873 62.9464 19.5873 62.3438C19.5873 61.7411 19.0987 61.25 18.4991 61.25C17.8995 61.25 17.4108 61.7411 17.4108 62.3438Z" fill="#C69F73"/>
</svg>
