<svg width="30" height="26" viewBox="0 0 30 26" fill="none" xmlns="http://www.w3.org/2000/svg">
<path d="M27.0234 7.02344V4L15 11.5234L2.97656 4V7.02344L15 14.4766L27.0234 7.02344ZM27.0234 0.976562C27.8203 0.976562 28.5 1.28125 29.0625 1.89062C29.6719 2.5 29.9766 3.20313 29.9766 4V22C29.9766 22.7969 29.6719 23.5 29.0625 24.1094C28.5 24.7188 27.8203 25.0234 27.0234 25.0234H2.97656C2.17969 25.0234 1.47656 24.7188 0.867188 24.1094C0.304688 23.5 0.0234375 22.7969 0.0234375 22V4C0.0234375 3.20313 0.304688 2.5 0.867188 1.89062C1.47656 1.28125 2.17969 0.976562 2.97656 0.976562H27.0234Z" fill="#C69F73"/>
</svg>
