<svg width="28" height="28" viewBox="0 0 28 28" xmlns="http://www.w3.org/2000/svg">
<path d="M5.91406 12.1719C8.16406 16.5312 11.4688 19.8359 15.8281 22.0859L19.1328 18.7812C19.6016 18.3125 20.1172 18.1953 20.6797 18.4297C22.3672 18.9922 24.1484 19.2734 26.0234 19.2734C26.4453 19.2734 26.7969 19.4141 27.0781 19.6953C27.3594 19.9766 27.5 20.3281 27.5 20.75V26.0234C27.5 26.4453 27.3594 26.7969 27.0781 27.0781C26.7969 27.3594 26.4453 27.5 26.0234 27.5C18.9922 27.5 12.9688 25.0156 7.95312 20.0469C2.98438 15.0312 0.5 9.00781 0.5 1.97656C0.5 1.55469 0.640625 1.20312 0.921875 0.921875C1.20312 0.640625 1.55469 0.5 1.97656 0.5H7.25C7.67188 0.5 8.02344 0.640625 8.30469 0.921875C8.58594 1.20312 8.72656 1.55469 8.72656 1.97656C8.72656 3.85156 9.00781 5.63281 9.57031 7.32031C9.75781 7.92969 9.64062 8.44531 9.21875 8.86719L5.91406 12.1719Z"/>
</svg>
