<svg width="256" height="400" viewBox="0 0 256 400" fill="none" xmlns="http://www.w3.org/2000/svg">
<g opacity="0.5">
<path fill-rule="evenodd" clip-rule="evenodd" d="M2 0C3.105 0 4 0.895 4 2C4 3.105 3.105 4 2 4C0.895 4 0 3.105 0 2C0 0.895 0.895 0 2 0Z" fill="#71767C"/>
<path fill-rule="evenodd" clip-rule="evenodd" d="M38 0C39.105 0 40 0.895 40 2C40 3.105 39.105 4 38 4C36.895 4 36 3.105 36 2C36 0.895 36.895 0 38 0Z" fill="#71767C"/>
<path fill-rule="evenodd" clip-rule="evenodd" d="M74 0C75.105 0 76 0.895 76 2C76 3.105 75.105 4 74 4C72.895 4 72 3.105 72 2C72 0.895 72.895 0 74 0Z" fill="#71767C"/>
<path fill-rule="evenodd" clip-rule="evenodd" d="M110 0C111.105 0 112 0.895 112 2C112 3.105 111.105 4 110 4C108.895 4 108 3.105 108 2C108 0.895 108.895 0 110 0Z" fill="#71767C"/>
<path fill-rule="evenodd" clip-rule="evenodd" d="M146 0C147.105 0 148 0.895 148 2C148 3.105 147.105 4 146 4C144.895 4 144 3.105 144 2C144 0.895 144.895 0 146 0Z" fill="#71767C"/>
<path fill-rule="evenodd" clip-rule="evenodd" d="M182 0C183.105 0 184 0.895 184 2C184 3.105 183.105 4 182 4C180.895 4 180 3.105 180 2C180 0.895 180.895 0 182 0Z" fill="#71767C"/>
<path fill-rule="evenodd" clip-rule="evenodd" d="M218 0C219.105 0 220 0.895 220 2C220 3.105 219.105 4 218 4C216.895 4 216 3.105 216 2C216 0.895 216.895 0 218 0Z" fill="#71767C"/>
<path fill-rule="evenodd" clip-rule="evenodd" d="M254 0C255.105 0 256 0.895 256 2C256 3.105 255.105 4 254 4C252.895 4 252 3.105 252 2C252 0.895 252.895 0 254 0Z" fill="#71767C"/>
<path fill-rule="evenodd" clip-rule="evenodd" d="M2 36C3.105 36 4 36.895 4 38C4 39.105 3.105 40 2 40C0.895 40 0 39.105 0 38C0 36.895 0.895 36 2 36Z" fill="#71767C"/>
<path fill-rule="evenodd" clip-rule="evenodd" d="M38 36C39.105 36 40 36.895 40 38C40 39.105 39.105 40 38 40C36.895 40 36 39.105 36 38C36 36.895 36.895 36 38 36Z" fill="#71767C"/>
<path fill-rule="evenodd" clip-rule="evenodd" d="M74 36C75.105 36 76 36.895 76 38C76 39.105 75.105 40 74 40C72.895 40 72 39.105 72 38C72 36.895 72.895 36 74 36Z" fill="#71767C"/>
<path fill-rule="evenodd" clip-rule="evenodd" d="M110 36C111.105 36 112 36.895 112 38C112 39.105 111.105 40 110 40C108.895 40 108 39.105 108 38C108 36.895 108.895 36 110 36Z" fill="#71767C"/>
<path fill-rule="evenodd" clip-rule="evenodd" d="M146 36C147.105 36 148 36.895 148 38C148 39.105 147.105 40 146 40C144.895 40 144 39.105 144 38C144 36.895 144.895 36 146 36Z" fill="#71767C"/>
<path fill-rule="evenodd" clip-rule="evenodd" d="M182 36C183.105 36 184 36.895 184 38C184 39.105 183.105 40 182 40C180.895 40 180 39.105 180 38C180 36.895 180.895 36 182 36Z" fill="#71767C"/>
<path fill-rule="evenodd" clip-rule="evenodd" d="M218 36C219.105 36 220 36.895 220 38C220 39.105 219.105 40 218 40C216.895 40 216 39.105 216 38C216 36.895 216.895 36 218 36Z" fill="#71767C"/>
<path fill-rule="evenodd" clip-rule="evenodd" d="M254 36C255.105 36 256 36.895 256 38C256 39.105 255.105 40 254 40C252.895 40 252 39.105 252 38C252 36.895 252.895 36 254 36Z" fill="#71767C"/>
<path fill-rule="evenodd" clip-rule="evenodd" d="M2 72C3.105 72 4 72.895 4 74C4 75.105 3.105 76 2 76C0.895 76 0 75.105 0 74C0 72.895 0.895 72 2 72Z" fill="#71767C"/>
<path fill-rule="evenodd" clip-rule="evenodd" d="M38 72C39.105 72 40 72.895 40 74C40 75.105 39.105 76 38 76C36.895 76 36 75.105 36 74C36 72.895 36.895 72 38 72Z" fill="#71767C"/>
<path fill-rule="evenodd" clip-rule="evenodd" d="M74 72C75.105 72 76 72.895 76 74C76 75.105 75.105 76 74 76C72.895 76 72 75.105 72 74C72 72.895 72.895 72 74 72Z" fill="#71767C"/>
<path fill-rule="evenodd" clip-rule="evenodd" d="M110 72C111.105 72 112 72.895 112 74C112 75.105 111.105 76 110 76C108.895 76 108 75.105 108 74C108 72.895 108.895 72 110 72Z" fill="#71767C"/>
<path fill-rule="evenodd" clip-rule="evenodd" d="M146 72C147.105 72 148 72.895 148 74C148 75.105 147.105 76 146 76C144.895 76 144 75.105 144 74C144 72.895 144.895 72 146 72Z" fill="#71767C"/>
<path fill-rule="evenodd" clip-rule="evenodd" d="M182 72C183.105 72 184 72.895 184 74C184 75.105 183.105 76 182 76C180.895 76 180 75.105 180 74C180 72.895 180.895 72 182 72Z" fill="#71767C"/>
<path fill-rule="evenodd" clip-rule="evenodd" d="M218 72C219.105 72 220 72.895 220 74C220 75.105 219.105 76 218 76C216.895 76 216 75.105 216 74C216 72.895 216.895 72 218 72Z" fill="#71767C"/>
<path fill-rule="evenodd" clip-rule="evenodd" d="M254 72C255.105 72 256 72.895 256 74C256 75.105 255.105 76 254 76C252.895 76 252 75.105 252 74C252 72.895 252.895 72 254 72Z" fill="#71767C"/>
<path fill-rule="evenodd" clip-rule="evenodd" d="M2 108C3.105 108 4 108.895 4 110C4 111.105 3.105 112 2 112C0.895 112 0 111.105 0 110C0 108.895 0.895 108 2 108Z" fill="#71767C"/>
<path fill-rule="evenodd" clip-rule="evenodd" d="M38 108C39.105 108 40 108.895 40 110C40 111.105 39.105 112 38 112C36.895 112 36 111.105 36 110C36 108.895 36.895 108 38 108Z" fill="#71767C"/>
<path fill-rule="evenodd" clip-rule="evenodd" d="M74 108C75.105 108 76 108.895 76 110C76 111.105 75.105 112 74 112C72.895 112 72 111.105 72 110C72 108.895 72.895 108 74 108Z" fill="#71767C"/>
<path fill-rule="evenodd" clip-rule="evenodd" d="M110 108C111.105 108 112 108.895 112 110C112 111.105 111.105 112 110 112C108.895 112 108 111.105 108 110C108 108.895 108.895 108 110 108Z" fill="#71767C"/>
<path fill-rule="evenodd" clip-rule="evenodd" d="M146 108C147.105 108 148 108.895 148 110C148 111.105 147.105 112 146 112C144.895 112 144 111.105 144 110C144 108.895 144.895 108 146 108Z" fill="#71767C"/>
<path fill-rule="evenodd" clip-rule="evenodd" d="M182 108C183.105 108 184 108.895 184 110C184 111.105 183.105 112 182 112C180.895 112 180 111.105 180 110C180 108.895 180.895 108 182 108Z" fill="#71767C"/>
<path fill-rule="evenodd" clip-rule="evenodd" d="M218 108C219.105 108 220 108.895 220 110C220 111.105 219.105 112 218 112C216.895 112 216 111.105 216 110C216 108.895 216.895 108 218 108Z" fill="#71767C"/>
<path fill-rule="evenodd" clip-rule="evenodd" d="M254 108C255.105 108 256 108.895 256 110C256 111.105 255.105 112 254 112C252.895 112 252 111.105 252 110C252 108.895 252.895 108 254 108Z" fill="#71767C"/>
<path fill-rule="evenodd" clip-rule="evenodd" d="M2 144C3.105 144 4 144.895 4 146C4 147.105 3.105 148 2 148C0.895 148 0 147.105 0 146C0 144.895 0.895 144 2 144Z" fill="#71767C"/>
<path fill-rule="evenodd" clip-rule="evenodd" d="M38 144C39.105 144 40 144.895 40 146C40 147.105 39.105 148 38 148C36.895 148 36 147.105 36 146C36 144.895 36.895 144 38 144Z" fill="#71767C"/>
<path fill-rule="evenodd" clip-rule="evenodd" d="M74 144C75.105 144 76 144.895 76 146C76 147.105 75.105 148 74 148C72.895 148 72 147.105 72 146C72 144.895 72.895 144 74 144Z" fill="#71767C"/>
<path fill-rule="evenodd" clip-rule="evenodd" d="M110 144C111.105 144 112 144.895 112 146C112 147.105 111.105 148 110 148C108.895 148 108 147.105 108 146C108 144.895 108.895 144 110 144Z" fill="#71767C"/>
<path fill-rule="evenodd" clip-rule="evenodd" d="M146 144C147.105 144 148 144.895 148 146C148 147.105 147.105 148 146 148C144.895 148 144 147.105 144 146C144 144.895 144.895 144 146 144Z" fill="#71767C"/>
<path fill-rule="evenodd" clip-rule="evenodd" d="M182 144C183.105 144 184 144.895 184 146C184 147.105 183.105 148 182 148C180.895 148 180 147.105 180 146C180 144.895 180.895 144 182 144Z" fill="#71767C"/>
<path fill-rule="evenodd" clip-rule="evenodd" d="M218 144C219.105 144 220 144.895 220 146C220 147.105 219.105 148 218 148C216.895 148 216 147.105 216 146C216 144.895 216.895 144 218 144Z" fill="#71767C"/>
<path fill-rule="evenodd" clip-rule="evenodd" d="M254 144C255.105 144 256 144.895 256 146C256 147.105 255.105 148 254 148C252.895 148 252 147.105 252 146C252 144.895 252.895 144 254 144Z" fill="#71767C"/>
<path fill-rule="evenodd" clip-rule="evenodd" d="M2 180C3.105 180 4 180.895 4 182C4 183.105 3.105 184 2 184C0.895 184 0 183.105 0 182C0 180.895 0.895 180 2 180Z" fill="#71767C"/>
<path fill-rule="evenodd" clip-rule="evenodd" d="M38 180C39.105 180 40 180.895 40 182C40 183.105 39.105 184 38 184C36.895 184 36 183.105 36 182C36 180.895 36.895 180 38 180Z" fill="#71767C"/>
<path fill-rule="evenodd" clip-rule="evenodd" d="M74 180C75.105 180 76 180.895 76 182C76 183.105 75.105 184 74 184C72.895 184 72 183.105 72 182C72 180.895 72.895 180 74 180Z" fill="#71767C"/>
<path fill-rule="evenodd" clip-rule="evenodd" d="M110 180C111.105 180 112 180.895 112 182C112 183.105 111.105 184 110 184C108.895 184 108 183.105 108 182C108 180.895 108.895 180 110 180Z" fill="#71767C"/>
<path fill-rule="evenodd" clip-rule="evenodd" d="M146 180C147.105 180 148 180.895 148 182C148 183.105 147.105 184 146 184C144.895 184 144 183.105 144 182C144 180.895 144.895 180 146 180Z" fill="#71767C"/>
<path fill-rule="evenodd" clip-rule="evenodd" d="M182 180C183.105 180 184 180.895 184 182C184 183.105 183.105 184 182 184C180.895 184 180 183.105 180 182C180 180.895 180.895 180 182 180Z" fill="#71767C"/>
<path fill-rule="evenodd" clip-rule="evenodd" d="M218 180C219.105 180 220 180.895 220 182C220 183.105 219.105 184 218 184C216.895 184 216 183.105 216 182C216 180.895 216.895 180 218 180Z" fill="#71767C"/>
<path fill-rule="evenodd" clip-rule="evenodd" d="M254 180C255.105 180 256 180.895 256 182C256 183.105 255.105 184 254 184C252.895 184 252 183.105 252 182C252 180.895 252.895 180 254 180Z" fill="#71767C"/>
<path fill-rule="evenodd" clip-rule="evenodd" d="M2 216C3.105 216 4 216.895 4 218C4 219.105 3.105 220 2 220C0.895 220 0 219.105 0 218C0 216.895 0.895 216 2 216Z" fill="#71767C"/>
<path fill-rule="evenodd" clip-rule="evenodd" d="M38 216C39.105 216 40 216.895 40 218C40 219.105 39.105 220 38 220C36.895 220 36 219.105 36 218C36 216.895 36.895 216 38 216Z" fill="#71767C"/>
<path fill-rule="evenodd" clip-rule="evenodd" d="M74 216C75.105 216 76 216.895 76 218C76 219.105 75.105 220 74 220C72.895 220 72 219.105 72 218C72 216.895 72.895 216 74 216Z" fill="#71767C"/>
<path fill-rule="evenodd" clip-rule="evenodd" d="M110 216C111.105 216 112 216.895 112 218C112 219.105 111.105 220 110 220C108.895 220 108 219.105 108 218C108 216.895 108.895 216 110 216Z" fill="#71767C"/>
<path fill-rule="evenodd" clip-rule="evenodd" d="M146 216C147.105 216 148 216.895 148 218C148 219.105 147.105 220 146 220C144.895 220 144 219.105 144 218C144 216.895 144.895 216 146 216Z" fill="#71767C"/>
<path fill-rule="evenodd" clip-rule="evenodd" d="M182 216C183.105 216 184 216.895 184 218C184 219.105 183.105 220 182 220C180.895 220 180 219.105 180 218C180 216.895 180.895 216 182 216Z" fill="#71767C"/>
<path fill-rule="evenodd" clip-rule="evenodd" d="M218 216C219.105 216 220 216.895 220 218C220 219.105 219.105 220 218 220C216.895 220 216 219.105 216 218C216 216.895 216.895 216 218 216Z" fill="#71767C"/>
<path fill-rule="evenodd" clip-rule="evenodd" d="M254 216C255.105 216 256 216.895 256 218C256 219.105 255.105 220 254 220C252.895 220 252 219.105 252 218C252 216.895 252.895 216 254 216Z" fill="#71767C"/>
<path fill-rule="evenodd" clip-rule="evenodd" d="M2 252C3.105 252 4 252.895 4 254C4 255.105 3.105 256 2 256C0.895 256 0 255.105 0 254C0 252.895 0.895 252 2 252Z" fill="#71767C"/>
<path fill-rule="evenodd" clip-rule="evenodd" d="M38 252C39.105 252 40 252.895 40 254C40 255.105 39.105 256 38 256C36.895 256 36 255.105 36 254C36 252.895 36.895 252 38 252Z" fill="#71767C"/>
<path fill-rule="evenodd" clip-rule="evenodd" d="M74 252C75.105 252 76 252.895 76 254C76 255.105 75.105 256 74 256C72.895 256 72 255.105 72 254C72 252.895 72.895 252 74 252Z" fill="#71767C"/>
<path fill-rule="evenodd" clip-rule="evenodd" d="M110 252C111.105 252 112 252.895 112 254C112 255.105 111.105 256 110 256C108.895 256 108 255.105 108 254C108 252.895 108.895 252 110 252Z" fill="#71767C"/>
<path fill-rule="evenodd" clip-rule="evenodd" d="M146 252C147.105 252 148 252.895 148 254C148 255.105 147.105 256 146 256C144.895 256 144 255.105 144 254C144 252.895 144.895 252 146 252Z" fill="#71767C"/>
<path fill-rule="evenodd" clip-rule="evenodd" d="M182 252C183.105 252 184 252.895 184 254C184 255.105 183.105 256 182 256C180.895 256 180 255.105 180 254C180 252.895 180.895 252 182 252Z" fill="#71767C"/>
<path fill-rule="evenodd" clip-rule="evenodd" d="M218 252C219.105 252 220 252.895 220 254C220 255.105 219.105 256 218 256C216.895 256 216 255.105 216 254C216 252.895 216.895 252 218 252Z" fill="#71767C"/>
<path fill-rule="evenodd" clip-rule="evenodd" d="M254 252C255.105 252 256 252.895 256 254C256 255.105 255.105 256 254 256C252.895 256 252 255.105 252 254C252 252.895 252.895 252 254 252Z" fill="#71767C"/>
<path fill-rule="evenodd" clip-rule="evenodd" d="M2 288C3.105 288 4 288.895 4 290C4 291.105 3.105 292 2 292C0.895 292 0 291.105 0 290C0 288.895 0.895 288 2 288Z" fill="#71767C"/>
<path fill-rule="evenodd" clip-rule="evenodd" d="M38 288C39.105 288 40 288.895 40 290C40 291.105 39.105 292 38 292C36.895 292 36 291.105 36 290C36 288.895 36.895 288 38 288Z" fill="#71767C"/>
<path fill-rule="evenodd" clip-rule="evenodd" d="M74 288C75.105 288 76 288.895 76 290C76 291.105 75.105 292 74 292C72.895 292 72 291.105 72 290C72 288.895 72.895 288 74 288Z" fill="#71767C"/>
<path fill-rule="evenodd" clip-rule="evenodd" d="M110 288C111.105 288 112 288.895 112 290C112 291.105 111.105 292 110 292C108.895 292 108 291.105 108 290C108 288.895 108.895 288 110 288Z" fill="#71767C"/>
<path fill-rule="evenodd" clip-rule="evenodd" d="M146 288C147.105 288 148 288.895 148 290C148 291.105 147.105 292 146 292C144.895 292 144 291.105 144 290C144 288.895 144.895 288 146 288Z" fill="#71767C"/>
<path fill-rule="evenodd" clip-rule="evenodd" d="M182 288C183.105 288 184 288.895 184 290C184 291.105 183.105 292 182 292C180.895 292 180 291.105 180 290C180 288.895 180.895 288 182 288Z" fill="#71767C"/>
<path fill-rule="evenodd" clip-rule="evenodd" d="M218 288C219.105 288 220 288.895 220 290C220 291.105 219.105 292 218 292C216.895 292 216 291.105 216 290C216 288.895 216.895 288 218 288Z" fill="#71767C"/>
<path fill-rule="evenodd" clip-rule="evenodd" d="M254 288C255.105 288 256 288.895 256 290C256 291.105 255.105 292 254 292C252.895 292 252 291.105 252 290C252 288.895 252.895 288 254 288Z" fill="#71767C"/>
<path fill-rule="evenodd" clip-rule="evenodd" d="M2 324C3.105 324 4 324.895 4 326C4 327.105 3.105 328 2 328C0.895 328 0 327.105 0 326C0 324.895 0.895 324 2 324Z" fill="#71767C"/>
<path fill-rule="evenodd" clip-rule="evenodd" d="M38 324C39.105 324 40 324.895 40 326C40 327.105 39.105 328 38 328C36.895 328 36 327.105 36 326C36 324.895 36.895 324 38 324Z" fill="#71767C"/>
<path fill-rule="evenodd" clip-rule="evenodd" d="M74 324C75.105 324 76 324.895 76 326C76 327.105 75.105 328 74 328C72.895 328 72 327.105 72 326C72 324.895 72.895 324 74 324Z" fill="#71767C"/>
<path fill-rule="evenodd" clip-rule="evenodd" d="M110 324C111.105 324 112 324.895 112 326C112 327.105 111.105 328 110 328C108.895 328 108 327.105 108 326C108 324.895 108.895 324 110 324Z" fill="#71767C"/>
<path fill-rule="evenodd" clip-rule="evenodd" d="M146 324C147.105 324 148 324.895 148 326C148 327.105 147.105 328 146 328C144.895 328 144 327.105 144 326C144 324.895 144.895 324 146 324Z" fill="#71767C"/>
<path fill-rule="evenodd" clip-rule="evenodd" d="M182 324C183.105 324 184 324.895 184 326C184 327.105 183.105 328 182 328C180.895 328 180 327.105 180 326C180 324.895 180.895 324 182 324Z" fill="#71767C"/>
<path fill-rule="evenodd" clip-rule="evenodd" d="M218 324C219.105 324 220 324.895 220 326C220 327.105 219.105 328 218 328C216.895 328 216 327.105 216 326C216 324.895 216.895 324 218 324Z" fill="#71767C"/>
<path fill-rule="evenodd" clip-rule="evenodd" d="M254 324C255.105 324 256 324.895 256 326C256 327.105 255.105 328 254 328C252.895 328 252 327.105 252 326C252 324.895 252.895 324 254 324Z" fill="#71767C"/>
<path fill-rule="evenodd" clip-rule="evenodd" d="M2 360C3.105 360 4 360.895 4 362C4 363.105 3.105 364 2 364C0.895 364 0 363.105 0 362C0 360.895 0.895 360 2 360Z" fill="#71767C"/>
<path fill-rule="evenodd" clip-rule="evenodd" d="M38 360C39.105 360 40 360.895 40 362C40 363.105 39.105 364 38 364C36.895 364 36 363.105 36 362C36 360.895 36.895 360 38 360Z" fill="#71767C"/>
<path fill-rule="evenodd" clip-rule="evenodd" d="M74 360C75.105 360 76 360.895 76 362C76 363.105 75.105 364 74 364C72.895 364 72 363.105 72 362C72 360.895 72.895 360 74 360Z" fill="#71767C"/>
<path fill-rule="evenodd" clip-rule="evenodd" d="M110 360C111.105 360 112 360.895 112 362C112 363.105 111.105 364 110 364C108.895 364 108 363.105 108 362C108 360.895 108.895 360 110 360Z" fill="#71767C"/>
<path fill-rule="evenodd" clip-rule="evenodd" d="M146 360C147.105 360 148 360.895 148 362C148 363.105 147.105 364 146 364C144.895 364 144 363.105 144 362C144 360.895 144.895 360 146 360Z" fill="#71767C"/>
<path fill-rule="evenodd" clip-rule="evenodd" d="M182 360C183.105 360 184 360.895 184 362C184 363.105 183.105 364 182 364C180.895 364 180 363.105 180 362C180 360.895 180.895 360 182 360Z" fill="#71767C"/>
<path fill-rule="evenodd" clip-rule="evenodd" d="M218 360C219.105 360 220 360.895 220 362C220 363.105 219.105 364 218 364C216.895 364 216 363.105 216 362C216 360.895 216.895 360 218 360Z" fill="#71767C"/>
<path fill-rule="evenodd" clip-rule="evenodd" d="M254 360C255.105 360 256 360.895 256 362C256 363.105 255.105 364 254 364C252.895 364 252 363.105 252 362C252 360.895 252.895 360 254 360Z" fill="#71767C"/>
<path fill-rule="evenodd" clip-rule="evenodd" d="M2 396C3.105 396 4 396.895 4 398C4 399.105 3.105 400 2 400C0.895 400 0 399.105 0 398C0 396.895 0.895 396 2 396Z" fill="#71767C"/>
<path fill-rule="evenodd" clip-rule="evenodd" d="M38 396C39.105 396 40 396.895 40 398C40 399.105 39.105 400 38 400C36.895 400 36 399.105 36 398C36 396.895 36.895 396 38 396Z" fill="#71767C"/>
<path fill-rule="evenodd" clip-rule="evenodd" d="M74 396C75.105 396 76 396.895 76 398C76 399.105 75.105 400 74 400C72.895 400 72 399.105 72 398C72 396.895 72.895 396 74 396Z" fill="#71767C"/>
<path fill-rule="evenodd" clip-rule="evenodd" d="M110 396C111.105 396 112 396.895 112 398C112 399.105 111.105 400 110 400C108.895 400 108 399.105 108 398C108 396.895 108.895 396 110 396Z" fill="#71767C"/>
<path fill-rule="evenodd" clip-rule="evenodd" d="M146 396C147.105 396 148 396.895 148 398C148 399.105 147.105 400 146 400C144.895 400 144 399.105 144 398C144 396.895 144.895 396 146 396Z" fill="#71767C"/>
<path fill-rule="evenodd" clip-rule="evenodd" d="M182 396C183.105 396 184 396.895 184 398C184 399.105 183.105 400 182 400C180.895 400 180 399.105 180 398C180 396.895 180.895 396 182 396Z" fill="#71767C"/>
<path fill-rule="evenodd" clip-rule="evenodd" d="M218 396C219.105 396 220 396.895 220 398C220 399.105 219.105 400 218 400C216.895 400 216 399.105 216 398C216 396.895 216.895 396 218 396Z" fill="#71767C"/>
<path fill-rule="evenodd" clip-rule="evenodd" d="M254 396C255.105 396 256 396.895 256 398C256 399.105 255.105 400 254 400C252.895 400 252 399.105 252 398C252 396.895 252.895 396 254 396Z" fill="#71767C"/>
</g>
</svg>
