<?xml version="1.0" encoding="utf-8"?><svg viewBox="0 0 30 28" xmlns="http://www.w3.org/2000/svg" xmlns:xlink="http://www.w3.org/1999/xlink"><style>:root>svg{display:none}:root>svg:target{display:block}</style><svg fill="none" viewBox="0 0 15 10" id="be" xmlns="http://www.w3.org/2000/svg"><path d="M5.89 4.668c.788-.406 1.22-.99 1.22-1.879C7.11.986 5.763.555 4.24.555H0v8.988h4.342c1.65 0 3.174-.787 3.174-2.615 0-1.117-.534-1.955-1.625-2.26zm-3.935-2.59h1.879c.71 0 1.346.203 1.346 1.041 0 .762-.508 1.067-1.22 1.067H1.956V2.078zM4.088 8.02H1.955V5.53h2.158c.889 0 1.422.381 1.422 1.295 0 .914-.66 1.194-1.447 1.194zm9.09-6.12v-.888H9.547V1.9h3.63zm1.447 4.495c0-1.93-1.143-3.555-3.174-3.555C9.445 2.84 8.1 4.338 8.1 6.293c0 2.031 1.295 3.428 3.351 3.428 1.549 0 2.565-.711 3.047-2.184h-1.574c-.178.559-.889.838-1.422.838-1.041 0-1.6-.61-1.6-1.65H14.6c0-.102.025-.229.025-.33zm-4.723-.813c.051-.838.635-1.371 1.473-1.371.914 0 1.371.508 1.447 1.371h-2.92z" fill="#fff"/></svg><svg fill="none" viewBox="0 0 8 13" id="fb" xmlns="http://www.w3.org/2000/svg"><path d="M7.084 7.938l.355-2.336H5.18V4.078c0-.66.305-1.27 1.321-1.27h1.041V.804S6.601.625 5.713.625C3.859.625 2.64 1.768 2.64 3.799v1.803H.559v2.335H2.64v5.688H5.18V7.937h1.904z" fill="#fff"/></svg><svg fill="none" viewBox="0 0 13 12" id="inst" xmlns="http://www.w3.org/2000/svg"><path d="M6.688 3.205a2.92 2.92 0 00-2.92 2.92 2.904 2.904 0 002.92 2.92 2.92 2.92 0 002.92-2.92c0-1.6-1.32-2.92-2.92-2.92zm0 4.824a1.902 1.902 0 01-1.905-1.904 1.88 1.88 0 011.904-1.879c1.042 0 1.88.838 1.88 1.879a1.88 1.88 0 01-1.88 1.904zm3.707-4.925a.683.683 0 00-.686-.686.683.683 0 00-.686.686c0 .38.305.685.686.685.38 0 .686-.305.686-.685zm1.93.685c-.052-.914-.255-1.727-.915-2.387C10.75.742 9.937.54 9.023.488c-.939-.05-3.757-.05-4.697 0-.914.051-1.701.254-2.387.914-.66.66-.863 1.473-.914 2.387-.05.94-.05 3.758 0 4.697.051.914.254 1.701.914 2.387.686.66 1.473.863 2.387.914.94.05 3.758.05 4.697 0 .915-.05 1.727-.254 2.387-.914.66-.685.863-1.473.914-2.387.051-.94.051-3.757 0-4.697zm-1.22 5.688c-.177.507-.584.888-1.066 1.091-.762.305-2.539.229-3.351.229-.838 0-2.616.076-3.352-.229a1.925 1.925 0 01-1.092-1.091c-.305-.737-.228-2.514-.228-3.352 0-.813-.077-2.59.228-3.352a1.958 1.958 0 011.092-1.066c.736-.305 2.514-.228 3.352-.228.812 0 2.59-.077 3.351.228.482.178.863.584 1.066 1.066.305.762.229 2.54.229 3.352 0 .838.076 2.615-.229 3.352z" fill="#fff"/></svg><svg fill="none" viewBox="0 0 7 11" id="link-arrow" xmlns="http://www.w3.org/2000/svg"><path d="M.148 9.633l3.829-3.828L.148 1.977 1.32.805l5 5-5 5L.148 9.633z" fill="#C9BCAE"/></svg><svg fill="none" viewBox="0 0 30 26" id="message" xmlns="http://www.w3.org/2000/svg"><path d="M27.023 7.023V4L15 11.523 2.977 4v3.023L15 14.477l12.023-7.454zm0-6.046c.797 0 1.477.304 2.04.914.609.609.914 1.312.914 2.109v18c0 .797-.305 1.5-.915 2.11-.562.609-1.242.913-2.039.913H2.977c-.797 0-1.5-.304-2.11-.914C.305 23.5.023 22.797.023 22V4c0-.797.282-1.5.844-2.11.61-.609 1.313-.913 2.11-.913h24.046z" fill="#C69F73"/></svg><svg fill="none" viewBox="0 0 28 28" id="phone" xmlns="http://www.w3.org/2000/svg"><path d="M5.914 12.172c2.25 4.36 5.555 7.664 9.914 9.914l3.305-3.305c.469-.468.984-.586 1.547-.351 1.687.562 3.468.843 5.343.843.422 0 .774.141 1.055.422.281.282.422.633.422 1.055v5.273c0 .422-.14.774-.422 1.055a1.43 1.43 0 01-1.055.422c-7.03 0-13.054-2.484-18.07-7.453C2.984 15.03.5 9.007.5 1.977c0-.422.14-.774.422-1.055A1.431 1.431 0 011.977.5H7.25c.422 0 .773.14 1.055.422.28.281.422.633.422 1.055 0 1.875.28 3.656.843 5.343.188.61.07 1.125-.351 1.547l-3.305 3.305z" fill="#C69F73"/></svg><svg fill="none" viewBox="0 0 28 28" id="telegram" xmlns="http://www.w3.org/2000/svg"><path d="M27.5.5l-11.32 27h-1.477l-3.937-10.266L.5 13.297V11.82L27.5.5z" fill="#C69F73"/></svg></svg>