<svg width="38" height="71" viewBox="0 0 38 71" fill="none" xmlns="http://www.w3.org/2000/svg">
<path fill-rule="evenodd" clip-rule="evenodd" d="M34.5202 64.4532V51.3596H30.0858V48.3612L38 33.8949L19 0L0 33.8949L7.91417 48.3612V51.3596H3.47984V64.4532H7.91417V71H30.0858V64.4532H34.5202ZM19 29.4006C20.8336 29.4006 22.3257 30.8692 22.3257 32.674C22.3257 34.4787 20.8336 35.9474 19 35.9474C17.1664 35.9474 15.6743 34.4787 15.6743 32.674C15.6743 30.8692 17.1664 29.4006 19 29.4006ZM17.8914 6.49551L2.52535 33.908L10.1313 47.8113V51.3596H27.8687V47.8113L35.4746 33.908L20.1086 6.49551V27.3296C22.635 27.8348 24.5429 30.04 24.5429 32.674C24.5429 35.6822 22.0564 38.1296 19 38.1296C15.9436 38.1296 13.4571 35.6822 13.4571 32.674C13.4571 30.04 15.365 27.8359 17.8914 27.3296V6.49551ZM5.69701 62.2709V53.5419H32.303V62.2709H30.0858H7.91417H5.69701ZM10.1313 64.4532V68.8177H27.8687V64.4532H10.1313Z" fill="#C69F73"/>
</svg>
