<svg width="70" height="55" viewBox="0 0 70 55" fill="none" xmlns="http://www.w3.org/2000/svg">
<path fill-rule="evenodd" clip-rule="evenodd" d="M59.0625 8.80005H0V55H59.0625V8.80005ZM56.875 11V49.3087L42.77 37.1481L31.9408 43.6833L16.4598 25.8907L2.1875 40.2446V11H56.875ZM2.1875 43.3554V52.8H56.875V52.2049L42.5436 39.8508L31.4978 46.5157L16.3527 29.1093L2.1875 43.3554Z" fill="#C69F73"/>
<path fill-rule="evenodd" clip-rule="evenodd" d="M9.84375 7.7H12.0312V2.2H67.8125V44H60.1562V46.2H70V0H9.84375V7.7Z" fill="#C69F73"/>
<path fill-rule="evenodd" clip-rule="evenodd" d="M50.3125 24.2001C50.3125 27.84 47.3692 30.8001 43.75 30.8001C40.1308 30.8001 37.1875 27.84 37.1875 24.2001C37.1875 20.5602 40.1308 17.6001 43.75 17.6001C47.3692 17.6001 50.3125 20.5602 50.3125 24.2001ZM48.125 24.2001C48.125 21.7735 46.1628 19.8001 43.75 19.8001C41.3372 19.8001 39.375 21.7735 39.375 24.2001C39.375 26.6267 41.3372 28.6001 43.75 28.6001C46.1628 28.6001 48.125 26.6267 48.125 24.2001Z" fill="#C69F73"/>
</svg>
