<svg width="42" height="60" viewBox="0 0 42 60" fill="none" xmlns="http://www.w3.org/2000/svg">
<path d="M15.6562 26.3438C17.1562 27.75 18.9375 28.4531 21 28.4531C23.0625 28.4531 24.7969 27.75 26.2031 26.3438C27.7031 24.8437 28.4531 23.0625 28.4531 21C28.4531 18.9375 27.7031 17.2031 26.2031 15.7969C24.7969 14.2969 23.0625 13.5469 21 13.5469C18.9375 13.5469 17.1562 14.2969 15.6562 15.7969C14.25 17.2031 13.5469 18.9375 13.5469 21C13.5469 23.0625 14.25 24.8437 15.6562 26.3438ZM6.09375 6.23438C10.2188 2.10938 15.1875 0.046875 21 0.046875C26.8125 0.046875 31.7344 2.10938 35.7656 6.23438C39.8906 10.2656 41.9531 15.1875 41.9531 21C41.9531 23.9063 41.2031 27.2344 39.7031 30.9844C38.2969 34.7344 36.5625 38.25 34.5 41.5312C32.4375 44.8125 30.375 47.9062 28.3125 50.8125C26.3438 53.625 24.6562 55.875 23.25 57.5625L21 59.9531C20.4375 59.2969 19.6875 58.4531 18.75 57.4219C17.8125 56.2969 16.125 54.1406 13.6875 50.9531C11.25 47.6719 9.09375 44.5312 7.21875 41.5312C5.4375 38.4375 3.79688 34.9688 2.29688 31.125C0.796875 27.2812 0.046875 23.9063 0.046875 21C0.046875 15.1875 2.0625 10.2656 6.09375 6.23438Z" fill="#C69F73"/>
</svg>
